<?xml version="1.0" standalone="no"?>
<!DOCTYPE svg PUBLIC "-//W3C//DTD SVG 20010904//EN"
 "http://www.w3.org/TR/2001/REC-SVG-20010904/DTD/svg10.dtd">
<svg version="1.0" xmlns="http://www.w3.org/2000/svg"
 width="1536.000000pt" height="1536.000000pt" viewBox="0 0 1536.000000 1536.000000"
 preserveAspectRatio="xMidYMid meet">
<metadata>
Created by potrace 1.14, written by Peter Selinger 2001-2017
</metadata>
<g transform="translate(0.000000,1536.000000) scale(0.100000,-0.100000)"
fill="#000000" stroke="none">
<path d="M0 7680 l0 -7680 7680 0 7680 0 0 7680 0 7680 -7680 0 -7680 0 0
-7680z m10872 2495 c8 -9 -12 -137 -33 -210 -23 -78 -92 -222 -141 -293 -18
-26 -75 -90 -128 -143 -153 -154 -315 -246 -525 -300 -115 -29 -132 -30 -374
-34 -321 -6 -432 -25 -632 -108 -255 -106 -519 -322 -671 -548 -91 -136 -182
-331 -203 -436 -8 -40 -14 -41 -46 -7 -32 34 -205 150 -304 205 -127 70 -271
134 -408 181 -83 28 -127 48 -127 57 0 24 97 243 157 353 236 436 609 799
1051 1022 291 147 565 220 972 259 57 6 1406 7 1412 2z m-5464 -395 l22 0 0
-924 0 -924 113 58 c280 142 613 220 940 220 257 0 484 -36 725 -117 320 -106
617 -285 827 -498 l70 -72 28 -128 c77 -353 190 -569 416 -796 186 -186 406
-316 656 -385 97 -28 252 -44 420 -44 251 -1 404 -25 572 -90 231 -89 440
-272 560 -490 81 -146 132 -336 104 -388 -11 -20 -14 -20 -713 -16 -387 3
-746 9 -798 15 -358 39 -673 139 -970 306 -109 62 -274 178 -362 255 -33 29
-74 64 -91 78 -17 14 -88 90 -159 170 -254 285 -448 624 -533 931 -15 52 -28
99 -30 105 -5 15 -184 106 -270 137 -152 54 -257 71 -435 70 -167 -1 -260 -14
-405 -60 -94 -29 -250 -112 -345 -184 -118 -88 -162 -130 -256 -245 l-74 -91
0 -725 0 -725 -25 -25 c-23 -24 -31 -25 -93 -21 -82 6 -235 56 -325 107 -261
146 -450 418 -488 706 -6 48 -9 602 -7 1520 l3 1445 23 90 c29 109 94 251 152
331 85 118 226 240 356 311 115 62 285 109 349 97 11 -2 30 -4 43 -4z m2553
-2067 c13 -16 12 -17 -3 -4 -10 7 -18 15 -18 17 0 8 8 3 21 -13z"/>
</g>
</svg>
